HIERARCHY
ROOT Hips
{
	OFFSET 0.00000 0.00000 0.00000
	CHANNELS 6 Xposition Yposition Zposition Yrotation Zrotation Xrotation 
	JOINT Lumbar
	{
		OFFSET 0 0 0
		CHANNELS 3 Zrotation Xrotation Yrotation
		JOINT Neck
		{
			OFFSET 0.00 0.2701 0.00
			CHANNELS 3 Zrotation Xrotation Yrotation
			End Site
			{
				OFFSET 0.00 0.1379 0.00
			}
		}
		JOINT RightShoulder
		{
			OFFSET 0.0119 0.2289 0.1181
			CHANNELS 3 Zrotation Xrotation Yrotation
			JOINT RightElbow
			{
				OFFSET 0.00 -0.1475 0.00
				CHANNELS 2 Zrotation Yrotation
				JOINT RightWrist
				{
					OFFSET 0.00 -0.1605 0.00
					CHANNELS 2 Zrotation Xrotation
					End Site
					{
						OFFSET 0.0040 -0.1068 0.0006
					}
				}
			}
		}
		JOINT LeftShoulder
		{
			OFFSET 0.0119 0.2289 -0.1181
			CHANNELS 3 Zrotation Xrotation Yrotation
			JOINT LeftElbow
			{
				OFFSET 0.00 -0.1475 0.00
				CHANNELS 2 Zrotation Yrotation
				JOINT LeftWrist
				{
					OFFSET 0.00 -0.1605 0.00
					CHANNELS 2 Zrotation Xrotation
					End Site
					{
						OFFSET 0.0040 -0.1068 -0.0006
					}
				}
			}
		}
	}
	JOINT RightHip
	{
		OFFSET 0.0316 -0.0424 0.0458
		CHANNELS 3 Zrotation Xrotation Yrotation
		JOINT RightKnee
		{
			OFFSET 0.00 -0.2438 0.00
			CHANNELS 1 Zrotation
			JOINT RightAnkle
			{
				OFFSET 0.00 -0.2449 0.00
				CHANNELS 3 Zrotation Xrotation Yrotation
				End Site
				{
					OFFSET 0.1237 -0.0542 0.0051
				}
			}
		}
	}
	JOINT LeftHip
	{
		OFFSET 0.0316 -0.0424 -0.0458
		CHANNELS 3 Zrotation Xrotation Yrotation
		JOINT LeftKnee
		{
			OFFSET 0.00 -0.2438 0.00
			CHANNELS 1 Zrotation
			JOINT LeftAnkle
			{
				OFFSET 0.00 -0.2449 0.00
				CHANNELS 3 Zrotation Xrotation Yrotation
				End Site
				{
					OFFSET 0.1237 -0.0542 -0.0051
				}
			}
		}
	}
}
MOTION
Frames: 22
Frame Time: 0.02
-6e-05 -7e-05 -0.00039 45.72948 -33.79909 -9.08289 50.78897 1.40613 -5.80726 -2.49244 -0.21632 -0.88907 -25.65628 -14.4071 15.39501 119.49994 83.79212 13.84239 -3.93806 -26.26759 12.29596 -21.93001 118.19222 -76.37808 6.87761 3.03739 46.19453 -2.12853 -6.67468 -19.89892 -6.47582 -2.31192 -3.36259 49.99311 3.54853 8.54668 -25.25796 -6.89206 1.1702 2.83654
-0.00017 -8e-05 -0.00021 45.71794 -33.77105 -9.08265 50.78734 1.39856 -5.81408 -2.5118 -0.22605 -0.89006 -25.81157 -13.90181 15.06128 119.52548 84.07137 14.97199 -3.59826 -26.45868 11.65909 -21.59125 118.18977 -78.83744 7.88194 2.63809 46.17964 -2.17687 -6.99105 -19.89768 -6.47591 -2.28041 -3.34539 49.98415 3.55807 8.56309 -25.25667 -6.89699 1.17144 2.83634
-0.00028 -8e-05 -3e-05 45.70642 -33.74306 -9.0824 50.78571 1.39101 -5.82088 -2.53111 -0.23576 -0.89105 -25.96639 -13.39804 14.72855 119.55096 84.35032 16.09806 -3.25975 -26.64914 11.0242 -21.25356 118.18734 -81.2891 8.8831 2.24002 46.16479 -2.22506 -7.30652 -19.89644 -6.476 -2.24899 -3.32824 49.97521 3.5676 8.57948 -25.25538 -6.90192 1.17268 2.83615
-0.00038 -9e-05 0.00014 45.69491 -33.7151 -9.08215 50.78408 1.38347 -5.82768 -2.55041 -0.24546 -0.89204 -26.12122 -12.89426 14.39582 119.57643 84.62885 17.22423 -2.92104 -26.83965 10.38926 -20.91583 118.18491 -83.74097 9.88436 1.84193 46.14995 -2.27326 -7.62193 -19.8952 -6.47609 -2.21757 -3.31108 49.96627 3.57712 8.59584 -25.2541 -6.90684 1.17392 2.83595
-0.00049 -9e-05 0.00032 45.68337 -33.68711 -9.0819 50.78246 1.37591 -5.8345 -2.56973 -0.25518 -0.89303 -26.27645 -12.38906 14.06215 119.60194 84.90732 18.35383 -2.58093 -27.03074 9.75244 -20.57706 118.18244 -86.20026 10.88868 1.44265 46.13507 -2.32159 -7.93821 -19.89396 -6.47618 -2.18608 -3.29389 49.95733 3.58665 8.61223 -25.25282 -6.91177 1.17516 2.83575
-0.0006 -0.0001 0.0005 45.67191 -33.65912 -9.08166 50.7808 1.36838 -5.84125 -2.589 -0.26487 -0.89402 -26.43038 -11.8884 13.73145 119.62734 85.18718 19.47234 -2.24581 -27.21986 9.12168 -20.24166 118.18009 -88.63557 11.88308 1.04719 46.12029 -2.36948 -8.25195 -19.89273 -6.47628 -2.1548 -3.27683 49.9484 3.59618 8.6286 -25.25152 -6.91667 1.17639 2.83556
-0.00071 -0.0001 0.00068 45.6603 -33.63116 -9.08141 50.77923 1.36079 -5.84816 -2.6084 -0.27459 -0.895 -26.58688 -11.37893 13.39503 119.65298 85.46433 20.61223 -1.90105 -27.41286 8.47921 -19.89977 118.17753 -91.11714 12.89662 0.64435 46.10533 -2.41821 -8.57043 -19.89147 -6.47635 -2.12312 -3.25951 49.93943 3.6057 8.64497 -25.25026 -6.92163 1.17765 2.83536
-0.00082 -0.00011 0.00086 45.64882 -33.60317 -9.08116 50.77754 1.35328 -5.85487 -2.62759 -0.28431 -0.89599 -26.74081 -10.87796 13.06407 119.6783 85.74325 21.73183 -1.56513 -27.60204 7.84794 -19.564 118.17512 -93.55477 13.89202 0.24855 46.09055 -2.46618 -8.88459 -19.89024 -6.47646 -2.0918 -3.24242 49.93051 3.61523 8.66136 -25.24896 -6.92654 1.17887 2.83517
-0.00092 -0.00011 0.00103 45.63753 -33.57513 -9.08091 50.77584 1.34577 -5.86153 -2.64691 -0.29394 -0.89698 -26.89247 -10.38568 12.73889 119.70362 86.02745 22.82936 -1.24012 -27.78759 7.22851 -19.23503 118.17306 -95.94478 14.86758 -0.13974 46.07593 -2.51319 -9.19342 -19.88906 -6.47657 -2.06096 -3.22563 49.9216 3.62477 8.67772 -25.24762 -6.93136 1.18009 2.83498
-0.00103 -0.00012 0.00121 45.62523 -33.54733 -9.08068 50.77463 1.33799 -5.86906 -2.66662 -0.30384 -0.89797 -27.05979 -9.83829 12.37777 119.73014 86.29065 24.06216 -0.85265 -27.99718 6.53535 -18.86489 118.1695 -98.62715 15.96435 -0.57453 46.06018 -2.56565 -9.53277 -19.88764 -6.47654 -2.02746 -3.20718 49.9125 3.63425 8.69412 -25.24656 -6.93662 1.18144 2.83476
-0.00114 -0.00012 0.00139 45.61502 -33.51906 -9.08038 50.77208 1.33092 -5.87437 -2.68478 -0.31331 -0.89896 -27.1924 -9.41048 12.09424 119.75337 86.59209 25.00418 -0.59675 -28.15402 6.00138 -18.58295 118.16876 -100.68082 16.80079 -0.9091 46.04695 -2.60664 -9.80779 -19.8867 -6.47686 -1.99953 -3.19222 49.9039 3.64387 8.71049 -25.24487 -6.941 1.18246 2.8346
-0.00126 -0.00013 0.00161 45.61087 -33.48934 -9.08015 50.76827 1.3248 -5.87626 -2.70419 -0.32048 -0.89995 -27.24114 -9.2864 12.01039 119.77324 87.05103 25.18692 -0.70715 -28.1794 5.87833 -18.53241 118.17809 -101.09402 16.95602 -0.98379 46.03986 -2.61545 -9.90356 -19.88715 -6.47788 -1.98731 -3.18711 49.89594 3.65388 8.72666 -25.24153 -6.94265 1.18282 2.8347
-0.00139 -0.00014 0.00185 45.60867 -33.45924 -9.07978 50.76254 1.31964 -5.87517 -2.72058 -0.3275 -0.90095 -27.25198 -9.28674 12.00639 119.78843 87.53963 25.072 -0.94858 -28.14811 5.91975 -18.57097 118.18936 -100.86286 16.84524 -0.95543 46.03564 -2.6128 -9.93476 -19.88804 -6.4793 -1.98065 -3.18549 49.88876 3.66407 8.74309 -25.23752 -6.94352 1.18277 2.83482
-0.00151 -0.00014 0.00208 45.60545 -33.42932 -9.07932 50.75625 1.31462 -5.87403 -2.73536 -0.33523 -0.90195 -27.27392 -9.24627 11.97515 119.80253 87.97909 25.06618 -1.12676 -28.13567 5.90307 -18.57756 118.19884 -100.86792 16.83259 -0.96384 46.03041 -2.61593 -9.99789 -19.88867 -6.48067 -1.97111 -3.18208 49.88154 3.67413 8.75912 -25.23379 -6.94494 1.1828 2.8349
-0.00163 -0.00015 0.0023 45.60312 -33.3991 -9.07958 50.75648 1.30691 -5.87987 -2.76459 -0.33993 -0.90291 -27.3255 -9.1403 11.908 119.83163 88.56506 25.16419 -1.32131 -28.15738 5.81721 -18.55431 118.21411 -101.0999 16.90919 -1.01288 46.0232 -2.6169 -10.05193 -19.88962 -6.48141 -1.96288 -3.17942 49.87244 3.68424 8.77522 -25.23025 -6.94542 1.18343 2.83521
-0.00177 -0.00016 0.00255 45.59901 -33.36978 -9.07819 50.7421 1.30533 -5.86914 -2.76066 -0.3513 -0.90397 -27.30155 -9.19939 11.93192 119.82658 88.85803 24.98298 -1.51225 -28.08813 5.91348 -18.60688 118.21533 -100.72 16.74472 -0.95494 46.0217 -2.61934 -10.10713 -19.88992 -6.48367 -1.95345 -3.17617 49.86812 3.69449 8.79263 -25.22606 -6.94781 1.18253 2.83496
-0.00193 -0.00016 0.00287 45.59277 -33.33993 -9.07343 50.69289 1.31811 -5.82463 -2.68565 -0.37779 -0.90528 -27.11693 -9.69192 12.20937 119.74296 88.2906 24.03792 -1.66531 -27.83358 6.48104 -18.90963 118.19764 -98.69409 15.91132 -0.60935 46.02749 -2.6315 -10.20377 -19.88915 -6.48917 -1.93728 -3.16934 49.87096 3.7031 8.80079 -25.22088 -6.95427 1.17918 2.83387
-0.00211 -0.00015 0.00322 45.58402 -33.31158 -9.06683 50.62814 1.33747 -5.7614 -2.57354 -0.41166 -0.9067 -26.84865 -10.34542 12.57098 119.62191 87.43552 22.83341 -1.80937 -27.47789 7.22529 -19.2734 118.16146 -96.09582 14.85618 -0.16299 46.04039 -2.6451 -10.30046 -19.88756 -6.49636 -1.91999 -3.16196 49.8797 3.71213 8.81214 -25.21494 -6.96292 1.17404 2.8321
-0.00229 -0.00015 0.00357 45.57432 -33.28462 -9.06029 50.5672 1.35533 -5.69944 -2.46561 -0.44428 -0.9081 -26.59562 -10.91897 12.88078 119.50904 86.74103 21.79225 -1.95481 -27.13675 7.88198 -19.5688 118.12101 -93.83504 13.94893 0.22585 46.05514 -2.65606 -10.38136 -19.88578 -6.50337 -1.90466 -3.15563 49.88952 3.72236 8.83106 -25.20896 -6.97151 1.16855 2.83015
-0.00242 -0.00015 0.00385 45.57366 -33.24895 -9.05689 50.51987 1.36692 -5.66813 -2.41166 -0.46784 -0.90938 -26.44468 -11.52262 13.25346 119.43532 85.92145 20.55332 -2.11636 -26.93385 8.572 -20.04093 118.13616 -91.22646 12.83822 0.66803 46.04853 -2.67463 -10.52314 -19.88636 -6.50791 -1.88374 -3.14627 49.88333 3.72705 8.81395 -25.20466 -6.97622 1.16772 2.83019
-0.00267 -0.00014 0.00428 45.55336 -33.23171 -9.04665 50.44059 1.39316 -5.56829 -2.23579 -0.51227 -0.91093 -26.05261 -12.10385 13.51057 119.26869 85.29379 19.66295 -2.24037 -26.4102 9.23627 -20.15573 118.02855 -89.21305 12.09615 1.02139 46.08804 -2.67834 -10.54329 -19.88188 -6.51798 -1.87368 -3.14278 49.91206 3.74299 8.87006 -25.19662 -6.98941 1.15707 2.82605
-0.00322 -9e-05 0.00509 45.48131 -33.26579 -9.01686 50.27638 1.45774 -5.2867 -1.73845 -0.61041 -0.9132 -25.09317 -12.55143 13.45697 118.87621 85.26575 19.84759 -2.26321 -25.1078 9.75164 -19.29005 117.60835 -89.00044 12.47761 1.10695 46.25338 -2.63628 -10.19023 -19.86323 -6.54297 -1.89782 -3.15766 50.03433 3.79307 9.14964 -25.1789 -7.02662 1.11705 2.80939
